<?xml version="1.0" standalone="no"?>
<!DOCTYPE svg PUBLIC "-//W3C//DTD SVG 20010904//EN"
 "http://www.w3.org/TR/2001/REC-SVG-20010904/DTD/svg10.dtd">
<svg version="1.0" xmlns="http://www.w3.org/2000/svg"
 width="256.000000pt" height="256.000000pt" viewBox="0 0 256.000000 256.000000"
 preserveAspectRatio="xMidYMid meet">

<g transform="translate(0.000000,256.000000) scale(0.100000,-0.100000)"
fill="#fd5c3f" stroke="none">
<path d="M575 2549 c-157 -23 -278 -82 -380 -184 -105 -105 -163 -227 -185
-388 -14 -105 -14 -1289 0 -1394 38 -281 209 -480 477 -555 76 -22 96 -22 733
-26 684 -4 787 1 896 38 209 72 357 231 416 447 19 71 22 109 26 426 3 296 1
359 -13 421 -36 165 -151 256 -322 256 -84 0 -129 17 -143 56 -6 14 -10 99
-10 188 0 129 -4 179 -20 240 -29 114 -83 209 -165 291 -105 105 -227 163
-388 185 -93 12 -835 11 -922 -1z m973 -154 c89 -21 157 -59 228 -127 121
-116 153 -217 154 -478 0 -185 9 -218 71 -277 50 -47 97 -63 184 -63 114 0
171 -29 206 -105 17 -36 19 -72 19 -390 0 -382 -6 -439 -56 -536 -36 -72 -132
-170 -204 -208 -111 -60 -127 -61 -870 -61 -743 0 -759 1 -870 61 -71 38 -168
136 -204 207 -55 109 -56 118 -56 862 0 753 1 757 61 871 38 71 136 167 207
203 102 52 131 54 617 55 364 1 462 -2 513 -14z"/>
<path d="M698 2055 c-92 -34 -168 -114 -198 -208 -18 -58 -9 -163 20 -222 33
-68 99 -129 166 -154 51 -20 76 -21 354 -21 350 0 374 5 460 90 150 151 107
406 -85 500 -50 25 -53 25 -365 27 -249 2 -323 -1 -352 -12z m648 -144 c102
-47 132 -167 62 -256 -46 -59 -76 -65 -368 -65 -292 0 -322 6 -368 65 -70 89
-40 209 62 256 37 17 69 19 306 19 237 0 269 -2 306 -19z"/>
<path d="M698 1095 c-92 -34 -168 -114 -198 -208 -18 -58 -9 -163 20 -222 33
-68 99 -129 166 -154 53 -20 74 -21 594 -21 522 0 541 1 595 21 74 28 146 100
174 174 58 154 -8 324 -154 395 l-50 25 -555 2 c-452 1 -562 -1 -592 -12z
m1128 -144 c75 -34 117 -117 96 -190 -16 -53 -48 -90 -96 -112 -38 -17 -76
-19 -546 -19 -470 0 -508 2 -546 19 -75 34 -117 117 -96 190 16 53 48 90 96
112 38 17 76 19 546 19 470 0 508 -2 546 -19z"/>
</g>
</svg>
